<svg width="68" height="68" viewBox="0 0 68 68" fill="none" xmlns="http://www.w3.org/2000/svg">
<path d="M33.9993 5.66699C18.3877 5.66699 5.66602 18.3887 5.66602 34.0003C5.66602 49.612 18.3877 62.3337 33.9993 62.3337C49.611 62.3337 62.3327 49.612 62.3327 34.0003C62.3327 18.3887 49.611 5.66699 33.9993 5.66699ZM43.5193 40.517C44.341 41.3387 44.341 42.6987 43.5193 43.5203C43.0943 43.9453 42.556 44.1437 42.0177 44.1437C41.4793 44.1437 40.941 43.9453 40.516 43.5203L33.9993 37.0037L27.4827 43.5203C27.0577 43.9453 26.5193 44.1437 25.981 44.1437C25.4427 44.1437 24.9044 43.9453 24.4793 43.5203C23.6577 42.6987 23.6577 41.3387 24.4793 40.517L30.996 34.0003L24.4793 27.4837C23.6577 26.662 23.6577 25.302 24.4793 24.4803C25.301 23.6587 26.661 23.6587 27.4827 24.4803L33.9993 30.997L40.516 24.4803C41.3377 23.6587 42.6977 23.6587 43.5193 24.4803C44.341 25.302 44.341 26.662 43.5193 27.4837L37.0027 34.0003L43.5193 40.517Z" fill="#bababa"/>
</svg>
